# Blender 4.0.2
# www.blender.org
o quarter_note
v -0.013065 0.024378 -0.000000
v 0.001695 0.029900 -0.000000
v 0.016197 0.030870 -0.000000
v 0.028234 0.027140 -0.000000
v 0.038233 0.019279 0.000000
v 0.038233 0.008482 0.000000
v 0.034674 -0.003606 0.000000
v 0.025836 -0.015144 0.000000
v 0.013065 -0.024378 0.000000
v -0.001695 -0.029900 0.000000
v -0.016197 -0.030870 0.000000
v -0.028234 -0.027140 0.000000
v -0.035972 -0.019279 -0.000000
v -0.038233 -0.008482 -0.000000
v -0.034674 0.003606 -0.000000
v -0.025836 0.015144 -0.000000
v 0.028234 0.210944 -0.000000
v 0.038233 0.210944 0.000000
v -0.025364 -0.013767 0.000000
v -0.013614 -0.007661 0.000000
v 0.000246 -0.000460 0.000000
v 0.014106 0.006742 0.000000
v 0.025856 0.012848 0.000000
v 0.001695 0.029900 -0.020000
v -0.013065 0.024378 -0.020000
v 0.016197 0.030870 -0.020000
v 0.028234 0.027140 -0.020000
v 0.038233 0.019279 -0.020000
v 0.038233 0.008482 -0.020000
v 0.034674 -0.003606 -0.020000
v 0.025836 -0.015144 -0.020000
v 0.013065 -0.024378 -0.020000
v -0.001695 -0.029900 -0.020000
v -0.016197 -0.030870 -0.020000
v -0.028234 -0.027140 -0.020000
v -0.035972 -0.019279 -0.020000
v -0.038233 -0.008482 -0.020000
v -0.034674 0.003606 -0.020000
v -0.025836 0.015144 -0.020000
v 0.038233 0.210944 -0.020000
v 0.028234 0.210944 -0.020000
v -0.025364 -0.013767 -0.020000
v -0.013614 -0.007661 -0.020000
v 0.000246 -0.000460 -0.020000
v 0.014106 0.006742 -0.020000
v 0.025856 0.012848 -0.020000
vn -0.0000 -0.0000 1.0000
vn -0.0000 -0.0000 -1.0000
vn -0.9992 0.0399 -0.0000
vn -0.8814 -0.4724 -0.0000
vn 0.8916 -0.4529 -0.0000
vn 0.9898 -0.1427 -0.0000
vn -0.8916 0.4529 -0.0000
vn 0.6973 -0.7168 -0.0000
vn -0.6973 0.7168 -0.0000
vn 0.4724 -0.8814 -0.0000
vn -0.2108 0.9775 -0.0000
vn -0.4724 0.8814 -0.0000
vn 0.2108 -0.9775 -0.0000
vn 0.1166 0.9932 -0.0000
vn -0.0000 1.0000 -0.0000
vn -0.1166 -0.9932 -0.0000
vn 0.2960 0.9552 -0.0000
vn -1.0000 -0.0000 -0.0000
vn -0.5200 -0.8541 -0.0000
vn 1.0000 -0.0000 -0.0000
vt 0.047603 0.163578
vt 0.090953 0.186812
vt 0.060789 0.195693
vt 0.033848 0.190049
vt 0.149681 0.029833
vt 0.130064 0.004880
vt 0.608336 0.004880
vt 0.608336 0.029833
vt 0.062838 0.134258
vt 0.119747 0.164758
vt 0.080809 0.099672
vt 0.007345 0.104516
vt 0.021124 0.067684
vt 0.098780 0.065086
vt 0.044165 0.035815
vt 0.114015 0.035765
vt 0.072959 0.013761
vt 0.103122 0.004880
vt 0.158988 0.059868
vt 0.156567 0.096056
vt 0.142788 0.132889
vt 0.004924 0.140705
vt 0.014231 0.170740
vt 0.047595 0.295112
vt 0.033842 0.268643
vt 0.060781 0.263000
vt 0.090942 0.271880
vt 0.149665 0.428847
vt 0.608283 0.428847
vt 0.608283 0.453798
vt 0.130050 0.453797
vt 0.062829 0.324430
vt 0.119734 0.293932
vt 0.080799 0.359013
vt 0.021119 0.390998
vt 0.007340 0.354169
vt 0.098769 0.393596
vt 0.044158 0.422865
vt 0.114003 0.422915
vt 0.072949 0.444917
vt 0.103111 0.453797
vt 0.158971 0.398814
vt 0.156551 0.362628
vt 0.142772 0.325799
vt 0.004920 0.317983
vt 0.014226 0.287951
vt 0.218960 0.254788
vt 0.218960 0.204880
vt 0.246486 0.204880
vt 0.246486 0.254788
vt 0.456645 0.254788
vt 0.456645 0.204880
vt 0.488089 0.204880
vt 0.488089 0.254788
vt 0.187517 0.254788
vt 0.187517 0.204880
vt 0.420376 0.254788
vt 0.420376 0.204880
vt 0.151247 0.254788
vt 0.151247 0.204880
vt 0.381051 0.254788
vt 0.381051 0.204880
vt 0.072597 0.254788
vt 0.072597 0.204880
vt 0.111922 0.204880
vt 0.111922 0.254788
vt 0.341725 0.254788
vt 0.341725 0.204880
vt 0.036327 0.254788
vt 0.036327 0.204880
vt 0.616149 0.004883
vt 0.666060 0.004883
vt 0.666060 0.029837
vt 0.616149 0.029837
vt 0.305456 0.254788
vt 0.305456 0.204880
vt 0.004884 0.254788
vt 0.004883 0.204880
vt 0.625387 0.038882
vt 0.625387 0.088789
vt 0.166735 0.088789
vt 0.166735 0.038882
vt 0.274012 0.254788
vt 0.274012 0.204880
vt 0.515030 0.254788
vt 0.515030 0.204880
vt 0.993303 0.204880
vt 0.993303 0.254788
s 1
f 19/1/1 15/2/1 14/3/1 13/4/1
f 4/5/1 5/6/1 18/7/1 17/8/1
f 20/9/1 16/10/1 15/2/1 19/1/1
f 21/11/1 20/9/1 10/12/1 9/13/1
f 22/14/1 21/11/1 9/13/1 8/15/1
f 23/16/1 22/14/1 8/15/1 7/17/1
f 5/6/1 23/16/1 7/17/1 6/18/1
f 3/19/1 2/20/1 22/14/1 23/16/1
f 2/20/1 1/21/1 21/11/1 22/14/1
f 1/21/1 16/10/1 20/9/1 21/11/1
f 10/12/1 20/9/1 19/1/1 11/22/1
f 11/22/1 19/1/1 13/4/1 12/23/1
f 4/5/1 3/19/1 23/16/1 5/6/1
f 42/24/2 36/25/2 37/26/2 38/27/2
f 27/28/2 41/29/2 40/30/2 28/31/2
f 43/32/2 42/24/2 38/27/2 39/33/2
f 44/34/2 32/35/2 33/36/2 43/32/2
f 45/37/2 31/38/2 32/35/2 44/34/2
f 46/39/2 30/40/2 31/38/2 45/37/2
f 28/31/2 29/41/2 30/40/2 46/39/2
f 26/42/2 46/39/2 45/37/2 24/43/2
f 24/43/2 45/37/2 44/34/2 25/44/2
f 25/44/2 44/34/2 43/32/2 39/33/2
f 33/36/2 34/45/2 42/24/2 43/32/2
f 34/45/2 35/46/2 36/25/2 42/24/2
f 27/28/2 28/31/2 46/39/2 26/42/2
f 14/47/3 37/48/3 36/49/4 13/50/4
f 7/51/5 30/52/5 29/53/6 6/54/6
f 15/55/7 38/56/7 37/48/3 14/47/3
f 8/57/8 31/58/8 30/52/5 7/51/5
f 16/59/9 39/60/9 38/56/7 15/55/7
f 9/61/10 32/62/10 31/58/8 8/57/8
f 2/63/11 24/64/11 25/65/12 1/66/12
f 1/66/12 25/65/12 39/60/9 16/59/9
f 10/67/13 33/68/13 32/62/10 9/61/10
f 3/69/14 26/70/14 24/64/11 2/63/11
f 18/71/15 40/72/15 41/73/15 17/74/15
f 11/75/16 34/76/16 33/68/13 10/67/13
f 4/77/17 27/78/17 26/70/14 3/69/14
f 17/79/18 41/80/18 27/81/18 4/82/18
f 12/83/19 35/84/19 34/76/16 11/75/16
f 5/85/20 28/86/20 40/87/20 18/88/20
f 13/50/4 36/49/4 35/84/19 12/83/19
f 6/54/6 29/53/6 28/86/20 5/85/20
